<?xml version="1.0" encoding="utf-8"?>
<!-- Generator: Adobe Illustrator 18.0.0, SVG Export Plug-In . SVG Version: 6.00 Build 0)  -->
<!DOCTYPE svg PUBLIC "-//W3C//DTD SVG 1.1//EN" "http://www.w3.org/Graphics/SVG/1.1/DTD/svg11.dtd">
<svg version="1.1"
	 id="Layer_1" xmlns:inkscape="http://www.inkscape.org/namespaces/inkscape" xmlns:sodipodi="http://sodipodi.sourceforge.net/DTD/sodipodi-0.dtd" xmlns:svg="http://www.w3.org/2000/svg" xmlns:rdf="http://www.w3.org/1999/02/22-rdf-syntax-ns#" xmlns:dc="http://purl.org/dc/elements/1.1/" xmlns:cc="http://creativecommons.org/ns#"
	 xmlns="http://www.w3.org/2000/svg" xmlns:xlink="http://www.w3.org/1999/xlink" x="0px" y="0px" viewBox="0 0 800 600"
	 enable-background="new 0 0 800 600" xml:space="preserve">
<path fill="#FFF8F8" d="M403.5,197c0.6-0.9,1.6-2,2.9-1.1c8.4,2.5,15,8.5,21.7,13.8c4.1,3.1,8,6.6,11.6,10.3
	c8.4,7.7,16.2,15.9,24.6,23.6c1.2,0.9,2.4,2.2,4,2.6c6.6,1.5,13.4,1.5,20.2,1.7c29.7-0.2,59.4,2.7,88.5,8.3
	c6.4,0.7,12.4,3.1,18.9,3.9c11.6,3,23.3,5.9,34.8,9.5c7,2.5,14.4,3.9,21.4,6.3c6,1.9,11.9,4.3,17.7,6.8c5.3,2.8,10.9,5.1,15.9,8.6
	c4.1,2.9,9,6.1,10.2,11.4c1.1,2.6-1.2,4.4-2.8,6c-3,2.1-6.6,3.1-9.9,4.6c0,0.3,0.1,0.7,0.2,1c3.8,0.6,7.4-0.9,11.3-1
	c2.4,0.9,3,4.5,1.1,6.2c-2.4,4-6.7,6.2-10.7,8.3c-4.8,2.6-10.1,4-15.3,5.7c-30.9,9.5-61.7,13-91.1,22c-2.1,0.5-3.2,2.4-4.7,3.8
	c-2,1.9-3.4,4.4-4.8,6.7c-4.8,6.7-10,13.1-15.5,19.3c-2.3,2-4.9,5-8.3,3.7c-2.5-0.7-3.6-3.3-3.9-5.7c-0.2-6.6-0.5-13.2,0.1-19.8
	c-7.6,1.1-15.2,2.7-23,3.1c-5.5,0.3-10.9,1.5-16.4,2.1c-7,0.8-13.9,2.2-21,2.3c-13.6-0.1-27.3,1.3-40.9-0.3
	c-1.1,3.4-3.4,6.1-5.4,8.9c-2.8,3.1-4.4,7.4-8.1,9.7c-2.6,1.3-4.5-1.3-5.3-3.3c-0.7-0.8-1.2-3-2.7-2.5c-9.6,6.7-15.1,16.4-26.9,23.5
	c-1.6,1-3.8,1-5.1-0.3c-3-3.6-2.9-8.6-1.8-12.9c1.6-12.3,0.9-18,7.3-28.3c-3.9-0.8-7.9-0.9-11.8-1.4c-10.7-2.2-21.6-3.3-32.5-4.2
	c-9.1-0.8-18.3-2-27.4-0.7c-2.7,0.2-5,1.9-7.3,3c-4.4,2-8.6,4.5-12.6,7.2c-3.3,2.2-6.9,3.6-10.3,5.7c-6,3.5-12.3,6.6-18.6,9.5
	c-6.1,2.1-11.8,5.4-17.8,7.8c-2.5,1-5.7,1-8-0.5c-3.1-2.9-4-7.2-5.3-11c-1.6-5.1-4-9.9-4.8-15.2c-0.6-5.8-0.6-11.6,0.1-17.4
	c0.2-1.4-0.2-2.9-0.8-4.1c1-1.1,1.6-3,3.6-2.6c4.4-0.2,8.8-0.9,12.5-3.3c-3.5-1.6-7.4-2-11.2-2.9c-4.9-1.1-9.9-1.6-14.9-2.1
	c-7.2-0.7-14.4,0.2-21.5,1.1c-3.6,0.6-6.8,2.4-10.4,3.3c-6.3,1.6-12.3,4.3-18.6,5.7c-6.5,1.5-12.6,4.6-19,6.6
	c-5.1,1.5-10.2,3.4-15.4,3.9c-7.2,0.9-14.4,1.7-21.7,2.6c-3.3,0.1-6.6-0.1-9.9-0.3c1-2.5,2.2-4.9,2.1-7.7c4-14.3,8-26.2,12.2-39.9
	c0.4-2.7-0.7-5.2-1-7.8c-7.6-17.8-6.3-31.4-6.5-51.5c0.5-2.5,4-2.6,6-2.4c11.3,1.3,22.5,4.4,32.7,9.4c6.5,2.9,13,5.7,18.9,9.6
	c8,4.4,15,11,23.9,13.6c7.3,1.9,14.9,3.5,22.5,3.7c7.9,0,15.9,0.1,23.7-1.4c-4.2-1.5-8.9-2-12.8-4.3c-2-1.1-1.1-4.1,0.3-5.3
	c2.8-3.4,7.6-3.4,11.6-3.7c3.6-0.2,7,1.1,10.4,2c6.4,1.8,12.7,5.1,19.5,4.3c5.9-0.9,11.8-0.9,17.7-1.9c6-1,12-1.5,18-2.8
	c4.1,0,8.2-0.5,12.2-1.4c6.4-1.1,12.9-1.6,19.1-3.1c8.4-1.8,17.1-2.2,25.6-3.8c5.1-1.1,10.5-1.6,15.6-3.1c-4.5-1.4-9.3-2-13.8-3.2
	c-3.2-1.2-6.6-2-9.7-3.2c-0.1-1.8,0.7-3.4,1.6-4.9c2-2.4,5-3.7,7.1-5.9C377.4,228,402.7,200.8,403.5,197L403.5,197z"/>
</svg>
